<svg width="28" height="28" viewBox="0 0 28 28" fill="none" xmlns="http://www.w3.org/2000/svg">
    <g clip-path="url(#clip0)">
    <path d="M7.93168 5.60464C7.93168 6.12 7.51392 6.53776 6.99856 6.53776C6.48319 6.53776 6.06543 6.12 6.06543 5.60464C6.06543 5.08927 6.48319 4.67151 6.99856 4.67151C7.51392 4.67151 7.93168 5.08927 7.93168 5.60464Z" fill="#E3E7F2"/>
    <path d="M27.5276 5.60464C27.5276 6.12 27.1098 6.53776 26.5944 6.53776C26.0791 6.53776 25.6613 6.12 25.6613 5.60464C25.6613 5.08927 26.0791 4.67151 26.5944 4.67151C27.1098 4.67151 27.5276 5.08927 27.5276 5.60464Z" fill="#E3E7F2"/>
    <path d="M20.9957 18.37L22.3908 19.2799L23.7997 17.6281L20.9957 14.7401L20.7298 14.4695L20.9957 18.37Z" fill="#A4C2F7"/>
    <path d="M20.9957 12.3605V22.8678C20.9955 23.151 20.9092 23.4276 20.7483 23.6608L16.6145 24.2674H12.7793L8.22087 24.2535C7.52162 24.167 6.99707 23.5722 6.99856 22.8678V11.698C7.00241 10.138 8.26594 8.87451 9.82592 8.87067L20.9957 12.3605Z" fill="#A4C2F7"/>
    <path d="M19.8293 12.3606V22.8678C19.8289 23.151 19.7428 23.4276 19.582 23.6608L15.4482 24.2674H12.7793L8.22087 24.2535C7.52162 24.167 6.99707 23.5722 6.99856 22.8678V11.698C6.99728 10.4437 7.82426 9.33928 9.0282 8.9873L19.8293 12.3606Z" fill="#E3E7F2"/>
    <path d="M23.7951 2.5765V8.40401C23.7951 10.723 21.9151 12.6032 19.5959 12.6032H13.9971C11.6781 12.6032 9.79794 10.723 9.79794 8.40401V2.5765C9.79816 1.41463 10.7403 0.472534 11.9021 0.472321H21.6909C22.853 0.472534 23.7948 1.41463 23.7951 2.5765Z" fill="#A4C2F7"/>
    <path d="M22.6287 2.5765V8.40401C22.6287 10.723 20.7486 12.6032 18.4295 12.6032H13.9971C11.6781 12.6032 9.79794 10.723 9.79794 8.40401V2.5765C9.79816 1.41463 10.7403 0.472534 11.9021 0.472321H20.5243C21.6864 0.472534 22.6285 1.41463 22.6287 2.5765Z" fill="#E3E7F2"/>
    <path d="M15.8634 5.3714C15.864 5.92841 15.6432 6.46279 15.2493 6.85684C14.8553 7.25068 14.3209 7.47173 13.7639 7.47088C13.6069 7.47045 13.4506 7.45337 13.2972 7.41962C12.3395 7.20391 11.6591 6.35301 11.6591 5.3714C11.6591 4.38957 12.3395 3.53889 13.2972 3.32317C13.4506 3.28943 13.6069 3.27213 13.7639 3.2717C14.3209 3.27106 14.8553 3.4919 15.2493 3.88595C15.6432 4.27979 15.864 4.81417 15.8634 5.3714Z" fill="#E3E7F2"/>
    <path d="M21.9288 5.3714C21.9294 5.92841 21.7086 6.46279 21.3148 6.85684C20.9207 7.25068 20.3863 7.47173 19.8293 7.47088C19.6723 7.47045 19.516 7.45337 19.3626 7.41962C18.405 7.20391 17.7245 6.35301 17.7245 5.3714C17.7245 4.38957 18.405 3.53889 19.3626 3.32317C19.516 3.28943 19.6723 3.27213 19.8293 3.2717C20.3863 3.27106 20.9207 3.4919 21.3148 3.88595C21.7086 4.27979 21.9294 4.81417 21.9288 5.3714Z" fill="#E3E7F2"/>
    <path d="M14.9302 5.3714C14.9302 4.24008 14.1991 3.32318 13.2972 3.32318C12.3953 3.32318 11.6642 4.24008 11.6642 5.3714C11.6642 6.50252 12.3953 7.41962 13.2972 7.41962C14.1991 7.41962 14.9302 6.50252 14.9302 5.3714Z" fill="#F5F5F5"/>
    <path d="M20.9957 5.3714C20.9957 4.24008 20.2646 3.32318 19.3626 3.32318C18.4607 3.32318 17.7296 4.24008 17.7296 5.3714C17.7296 6.50252 18.4607 7.41962 19.3626 7.41962C20.2646 7.41962 20.9957 6.50252 20.9957 5.3714Z" fill="#F5F5F5"/>
    <path d="M13.064 25.434V25.6672H7.93168V25.434C7.92997 24.2413 8.75246 23.2057 9.91455 22.9377C10.1055 22.8907 10.3013 22.8672 10.4978 22.8678C11.9151 22.8678 13.064 24.0167 13.064 25.434Z" fill="#A4C2F7"/>
    <path d="M21.4621 25.434V25.6672H16.33V25.434C16.3281 24.2413 17.1508 23.2057 18.3129 22.9377C18.5036 22.8907 18.6995 22.8672 18.896 22.8678C20.3133 22.8678 21.4621 24.0167 21.4621 25.434Z" fill="#A4C2F7"/>
    <path d="M11.8974 25.434V25.6672H7.93168V25.434C7.92997 24.2413 8.75247 23.2057 9.91455 22.9377C10.3812 23.0438 10.8084 23.28 11.1463 23.619C11.6275 24.1004 11.8978 24.7533 11.8974 25.434Z" fill="#E3E7F2"/>
    <path d="M20.2958 25.434V25.6672H16.33V25.434C16.3281 24.2413 17.1508 23.2057 18.3129 22.9377C18.7796 23.0438 19.2067 23.28 19.5446 23.619C20.0258 24.1004 20.296 24.7533 20.2958 25.434Z" fill="#E3E7F2"/>
    <path d="M20.9957 14.4695V19.6018H13.9971C13.4824 19.6003 13.0655 19.1834 13.064 18.6686V15.4026C13.0655 14.8879 13.4824 14.4709 13.9971 14.4695H20.9957Z" fill="#A4C2F7"/>
    <path d="M19.8293 14.4695V19.6018H13.9971C13.4824 19.6003 13.0655 19.1834 13.064 18.6686V15.4026C13.0655 14.8879 13.4824 14.4709 13.9971 14.4695H19.8293Z" fill="#E3E7F2"/>
    <path d="M4.78224 17.1009C5.03341 17.0843 5.26664 16.9642 5.42618 16.7697L6.2333 15.7992C6.42979 15.5356 6.6942 15.3308 6.99855 15.2067C7.09253 15.1715 7.19205 15.1542 7.29244 15.1552C7.65189 15.1898 8.0043 15.2778 8.33748 15.4166C8.71701 15.5589 9.14502 15.4401 9.39662 15.1226L9.43869 15.0713C9.62045 14.8421 9.68431 14.5408 9.61105 14.2576C9.53758 13.9744 9.33575 13.7418 9.06536 13.6296C8.50941 13.4101 7.91822 13.293 7.32042 13.2843C7.21277 13.2841 7.10534 13.2903 6.99855 13.3031C6.11818 13.4235 5.32409 13.8947 4.79634 14.6093L3.99371 15.5798C3.80192 15.809 3.7325 16.1163 3.80726 16.4057L4.78224 17.1009Z" fill="#E3E7F2"/>
    <path d="M5.02488 18.5052C4.55821 19.2179 3.6443 19.4885 2.86474 19.1445C2.77269 19.1097 2.68491 19.0644 2.60353 19.0093C1.79663 18.4768 1.57131 17.3927 2.09949 16.583C2.28552 16.2987 2.55185 16.0762 2.86474 15.9438C3.57382 15.6326 4.40294 15.8252 4.90207 16.4171C5.40142 17.0091 5.4514 17.8589 5.02488 18.5052Z" fill="#A4C2F7"/>
    <path d="M25.3347 19.7976C24.9272 20.6389 23.9281 21.0075 23.0719 20.6329C23.0672 20.6282 23.0672 20.6282 23.0672 20.6329C23.0439 20.6235 23.0206 20.6096 22.9973 20.6002C22.3854 20.2997 22.0033 19.672 22.0172 18.9907C22.0313 18.3094 22.439 17.6979 23.0625 17.4228H23.0672C23.7397 17.1294 24.5242 17.2872 25.0308 17.8179C25.5376 18.3487 25.659 19.1394 25.3347 19.7976Z" fill="#A4C2F7"/>
    <path d="M3.6253 18.5052C3.44098 18.7893 3.17614 19.0118 2.86474 19.1445C2.77269 19.1097 2.68491 19.0644 2.60353 19.0093C1.79663 18.4768 1.57131 17.3927 2.09949 16.583C2.28552 16.2988 2.55185 16.0762 2.86474 15.9438C2.95594 15.9822 3.04351 16.029 3.12595 16.0839C3.51359 16.3385 3.78398 16.7368 3.87775 17.1911C3.97129 17.6454 3.88052 18.118 3.6253 18.5052Z" fill="#E3E7F2"/>
    <path d="M23.9349 19.7976C23.7553 20.1694 23.4495 20.4655 23.0719 20.6329C23.0672 20.6282 23.0672 20.6282 23.0672 20.6329C23.0439 20.6235 23.0206 20.6096 22.9973 20.6002C22.3854 20.2997 22.0033 19.672 22.0172 18.9907C22.0313 18.3094 22.439 17.6979 23.0625 17.4228H23.0672C23.0905 17.4322 23.114 17.4461 23.1372 17.4555C24.0044 17.882 24.3615 18.9307 23.9349 19.7976Z" fill="#E3E7F2"/>
    <path d="M13.5304 26.3671C13.5268 26.8807 13.1112 27.2964 12.5973 27.3002H8.39814C7.88341 27.2987 7.46672 26.8818 7.46501 26.3671C7.46886 25.8532 7.88448 25.4376 8.39814 25.434H12.5973C13.112 25.4355 13.5289 25.8524 13.5304 26.3671Z" fill="#A4C2F7"/>
    <path d="M21.9288 26.3671C21.925 26.8807 21.5093 27.2964 20.9957 27.3002H16.7965C16.2818 27.2987 15.8649 26.8818 15.8634 26.3671C15.8672 25.8532 16.2828 25.4376 16.7965 25.434H20.9957C21.5104 25.4355 21.9273 25.8524 21.9288 26.3671Z" fill="#A4C2F7"/>
    <path d="M12.3641 26.3671C12.3602 26.8807 11.9446 27.2964 11.431 27.3002H8.39814C7.88341 27.2987 7.46672 26.8818 7.46501 26.3671C7.46886 25.8532 7.88448 25.4376 8.39814 25.434H11.431C11.9457 25.4355 12.3626 25.8524 12.3641 26.3671Z" fill="#E3E7F2"/>
    <path d="M20.7624 26.3671C20.7586 26.8807 20.343 27.2964 19.8293 27.3002H16.7965C16.2818 27.2987 15.8649 26.8818 15.8634 26.3671C15.8672 25.8532 16.2828 25.4376 16.7965 25.434H19.8293C20.344 25.4355 20.7607 25.8524 20.7624 26.3671Z" fill="#E3E7F2"/>
    <path d="M14.4636 5.60464C14.4636 5.86222 14.2547 6.0711 13.9971 6.0711C13.7393 6.0711 13.5304 5.86222 13.5304 5.60464C13.5304 5.34685 13.7393 5.13797 13.9971 5.13797C14.2547 5.13797 14.4636 5.34685 14.4636 5.60464Z" fill="#202B38"/>
    <path d="M20.0625 5.60464C20.0625 5.86222 19.8537 6.0711 19.5959 6.0711C19.3383 6.0711 19.1294 5.86222 19.1294 5.60464C19.1294 5.34685 19.3383 5.13797 19.5959 5.13797C19.8537 5.13797 20.0625 5.34685 20.0625 5.60464Z" fill="#202B38"/>
    <path d="M19.5959 17.2688C19.5959 17.5266 19.387 17.7355 19.1294 17.7355C18.8716 17.7355 18.6628 17.5266 18.6628 17.2688C18.6628 17.0112 18.8716 16.8024 19.1294 16.8024C19.387 16.8024 19.5959 17.0112 19.5959 17.2688Z" fill="#202B38"/>
    <path d="M2.60354 19.0093C2.68491 19.0644 2.77269 19.1097 2.86474 19.1445C3.30963 19.341 3.81666 19.341 4.26155 19.1445C4.17056 19.1099 4.08385 19.065 4.00312 19.0106C3.19622 18.4783 2.9711 17.394 3.49929 16.5845C3.68531 16.3002 3.95165 16.0777 4.26454 15.9453C4.57487 15.8105 4.91788 15.7686 5.2517 15.8248C5.28523 15.7368 5.33243 15.6546 5.3916 15.5813L6.19422 14.6108C6.72219 13.8951 7.51713 13.4235 8.39815 13.3031V11.698C8.40199 10.1383 9.66552 8.87473 11.2253 8.87067C11.2074 8.71562 11.1982 8.55992 11.1977 8.404V2.5765C11.198 1.41463 12.1398 0.472534 13.3019 0.472321H11.9021C10.7403 0.472534 9.79816 1.41463 9.79794 2.5765V8.404C9.79837 8.55992 9.80755 8.71562 9.82549 8.87067C8.26573 8.87473 7.00241 10.1383 6.99856 11.698V13.3031C6.11819 13.4235 5.3241 13.8947 4.79635 14.6093L3.99372 15.5798C3.93456 15.6531 3.88736 15.7353 3.85383 15.8235C3.52 15.7674 3.17721 15.809 2.86666 15.9438C2.55313 16.076 2.28616 16.2985 2.09949 16.583C1.57131 17.3927 1.79663 18.4768 2.60354 19.0093Z" fill="white"/>
    <path d="M6.99855 6.53775C7.26745 6.53711 7.52289 6.41964 7.69845 6.21589C7.38727 5.86775 7.38727 5.3415 7.69845 4.99336C7.41589 4.66744 6.94687 4.57774 6.56413 4.77615C6.18118 4.97435 5.98405 5.40941 6.08721 5.82803C6.19058 6.24686 6.56734 6.5401 6.99855 6.53775Z" fill="white"/>
    <path d="M7.6331 15.7992L6.99856 16.5621V22.8678C6.99707 23.5722 7.52162 24.167 8.22087 24.2535H8.22429C8.03293 24.6177 7.93254 25.0226 7.93169 25.434V25.564C7.86163 25.6035 7.79735 25.6524 7.74032 25.709C7.56305 25.882 7.46374 26.1195 7.46502 26.3671C7.46673 26.8818 7.88342 27.2987 8.39815 27.3002H9.79794C9.28322 27.2987 8.86631 26.8818 8.86482 26.3671C8.86353 26.1195 8.96285 25.882 9.14012 25.709C9.19693 25.6524 9.26143 25.6035 9.33149 25.564V25.434C9.33234 25.0226 9.43272 24.6177 9.62388 24.2535H9.62067C8.92141 24.167 8.39665 23.5722 8.39815 22.8678V15.2067C8.09401 15.3308 7.82938 15.5356 7.6331 15.7992Z" fill="white"/>
    <path d="M6.53188 22.8678V14.9733H7.46501V22.8678H6.53188Z" fill="white"/>
    <path d="M13.7639 7.93754C15.181 7.93754 16.33 6.78848 16.33 5.37139C16.33 3.95408 15.181 2.80524 13.7639 2.80524C12.3466 2.80524 11.1977 3.95408 11.1977 5.37139C11.1992 6.78784 12.3472 7.93583 13.7639 7.93754ZM13.7639 3.73836C14.6656 3.73836 15.3967 4.46944 15.3967 5.37139C15.3967 6.27312 14.6656 7.00441 13.7639 7.00441C12.8619 7.00441 12.1309 6.27312 12.1309 5.37139C12.1309 4.46944 12.8619 3.73836 13.7639 3.73836Z" fill="#202B38"/>
    <path d="M19.8293 7.93754C21.2464 7.93754 22.3953 6.78848 22.3953 5.37139C22.3953 3.95408 21.2464 2.80524 19.8293 2.80524C18.412 2.80524 17.2632 3.95408 17.2632 5.37139C17.2647 6.78784 18.4126 7.93583 19.8293 7.93754ZM19.8293 3.73836C20.731 3.73836 21.4621 4.46944 21.4621 5.37139C21.4621 6.27312 20.731 7.00441 19.8293 7.00441C18.9274 7.00441 18.1963 6.27312 18.1963 5.37139C18.1963 4.46944 18.9274 3.73836 19.8293 3.73836Z" fill="#202B38"/>
    <path d="M15.8634 9.33713H14.4636C14.206 9.33713 13.9971 9.54601 13.9971 9.8038C13.9971 10.0614 14.206 10.2703 14.4636 10.2703H15.8634C16.121 10.2703 16.33 10.0614 16.33 9.8038C16.33 9.54601 16.121 9.33713 15.8634 9.33713Z" fill="#202B38"/>
    <path d="M6.82128 19.5644C6.84776 19.5778 6.87596 19.5872 6.90522 19.5923C6.93597 19.5977 6.96715 19.6007 6.99855 19.6017C7.122 19.5998 7.24032 19.5516 7.32981 19.4663C7.37189 19.4219 7.40521 19.3696 7.42785 19.3126C7.49811 19.1385 7.45988 18.9392 7.32981 18.8038C7.28517 18.7617 7.23285 18.7284 7.17582 18.706C7.11965 18.6821 7.05942 18.6693 6.99855 18.6686C6.80889 18.6675 6.6376 18.7812 6.56499 18.9563C6.49215 19.1312 6.53273 19.3328 6.66729 19.4663L6.73734 19.5225C6.76319 19.54 6.79159 19.5541 6.82128 19.5644Z" fill="#202B38"/>
    <path d="M0.277039 20.2469C0.329366 20.4993 0.576263 20.6616 0.828713 20.6095C1.08095 20.5572 1.24327 20.3103 1.19116 20.0581L1.00129 19.1397L2.08798 18.6775C2.33786 19.0162 2.69988 19.2552 3.10974 19.352L3.11721 20.5301L2.19904 20.721C1.96517 20.7697 1.80584 20.9871 1.82976 21.2246C1.85389 21.4623 2.05338 21.6435 2.29216 21.6443C2.32355 21.6443 2.35495 21.6411 2.38549 21.6345L3.67807 21.3671C3.89613 21.3227 4.05247 21.1302 4.05119 20.9077L4.04137 19.3421C5.0029 19.0933 5.59644 18.1299 5.38606 17.1592C5.53706 17.0763 5.67162 16.9665 5.7831 16.8354L6.53191 15.9362V17.2683C6.53191 17.5261 6.74079 17.735 6.99858 17.735C7.25616 17.735 7.46504 17.5261 7.46504 17.2683V15.411C7.70596 15.4595 7.94218 15.5289 8.17113 15.6186C8.73754 15.8373 9.38042 15.6622 9.75738 15.1861L9.80693 15.1263C10.0833 14.7775 10.1773 14.3179 10.0602 13.8884C9.9496 13.4662 9.64419 13.1221 9.23817 12.9619C8.67219 12.7396 8.07267 12.6148 7.46504 12.5924V11.6975C7.46782 10.547 8.30013 9.56599 9.43509 9.37633C9.89642 11.5279 11.7966 13.0661 13.9971 13.0691H19.5959C19.9094 13.0695 20.2219 13.0384 20.529 12.976V14.0025H13.9971C13.224 14.0025 12.5973 14.6291 12.5973 15.402V18.6681C12.5973 19.441 13.224 20.0677 13.9971 20.0677H20.529V22.8673V22.8807C19.853 22.4454 19.0312 22.2976 18.2457 22.4702C17.4603 22.6428 16.7762 23.1216 16.3448 23.8004H13.0491C12.5042 22.9446 11.5668 22.4185 10.5525 22.3997C9.53825 22.3812 8.58184 22.872 8.00582 23.7071C7.67755 23.5563 7.46654 23.2286 7.46504 22.8673V21.001C7.46504 20.7432 7.25616 20.5343 6.99858 20.5343C6.74079 20.5343 6.53191 20.7432 6.53191 21.001V22.8673C6.53298 23.586 6.94818 24.2399 7.5981 24.5468C7.51011 24.8341 7.46525 25.1329 7.46504 25.4334V25.5639C7.03254 25.9496 6.88368 26.5626 7.09085 27.1038C7.29823 27.645 7.81873 28.0015 8.39817 27.9996H12.5973C13.177 28.0015 13.6975 27.645 13.9047 27.1038C14.112 26.5626 13.9632 25.9496 13.5305 25.5639V25.4334C13.5298 25.1976 13.5012 24.9627 13.4457 24.7335H15.9484C15.8927 24.9627 15.8642 25.1976 15.8634 25.4334V25.5639C15.4309 25.9496 15.2818 26.5626 15.4892 27.1038C15.6966 27.645 16.2171 28.0015 16.7965 27.9996H20.9957C21.5751 28.0015 22.0956 27.645 22.303 27.1038C22.5104 26.5626 22.3613 25.9496 21.9288 25.5639V25.4334C21.9284 24.7707 21.7099 24.1265 21.3069 23.6007C21.4081 23.3694 21.4609 23.1197 21.4622 22.8673V19.2307L21.9852 19.5717C21.9914 19.5914 21.9927 19.6115 21.9993 19.6307C22.3098 20.5743 23.3143 21.1001 24.2669 20.818L25.0548 22.1674C25.1381 22.3113 25.2916 22.4004 25.458 22.4006C25.5095 22.4004 25.5607 22.392 25.6096 22.3754L26.8576 21.948C27.0169 21.8953 27.1357 21.7611 27.1686 21.5965C27.2014 21.4318 27.1434 21.2622 27.0165 21.1524C26.8896 21.0424 26.7136 21.0093 26.5554 21.0653L25.6688 21.369L25.0736 20.3477C25.3783 20.0576 25.5691 19.6681 25.6114 19.2494L26.7826 19.0946L27.0863 19.981C27.1376 20.142 27.2719 20.2627 27.4377 20.2964C27.6032 20.3302 27.7741 20.2716 27.8845 20.1437C27.9947 20.0156 28.0269 19.8379 27.969 19.6792L27.5417 18.4306C27.4697 18.2204 27.2593 18.0904 27.0391 18.1194L25.4868 18.3247C25.3181 17.9001 24.998 17.553 24.5883 17.3505C24.4098 17.2659 24.219 17.2102 24.0232 17.1852L21.4622 14.5505V12.6768C23.1607 11.9342 24.2594 10.2573 24.2617 8.40348V6.07056H25.2807C25.508 6.71343 26.1652 7.09894 26.8371 6.98361C27.509 6.86827 28 6.28584 28 5.6041C28 4.92236 27.509 4.33971 26.8371 4.22459C26.1652 4.10926 25.508 4.49477 25.2807 5.13743H24.2617V2.5779C24.2598 1.15781 23.1091 0.00704921 21.689 0.00534058H11.9041C10.484 0.00704921 9.33321 1.15781 9.33151 2.5779V5.13743H8.31252C8.08527 4.49477 7.42788 4.10926 6.75617 4.22459C6.08425 4.33971 5.59302 4.92236 5.59302 5.6041C5.59302 6.28584 6.08425 6.86827 6.75617 6.98361C7.42788 7.09894 8.08527 6.71343 8.31252 6.07056H9.33151V8.40348V8.44449C7.72347 8.68946 6.53469 10.0709 6.53191 11.6975V12.6815C5.69895 12.9038 4.96253 13.3948 4.43713 14.0785L3.6392 15.0456C3.48371 15.2337 3.38098 15.4601 3.34211 15.701C3.29064 15.7072 3.23895 15.7072 3.18769 15.7175C2.21826 15.9151 1.57496 16.8394 1.72681 17.817L0.28366 18.4306C0.0792647 18.5177 -0.0354273 18.7369 0.00985153 18.9545L0.277039 20.2469ZM10.4979 23.3337C11.2734 23.3346 11.985 23.7628 12.3492 24.4475C12.3492 24.4535 12.3571 24.4582 12.3598 24.4642C12.4799 24.6934 12.5561 24.943 12.5847 25.2H8.41077C8.43939 24.9471 8.51371 24.7015 8.63054 24.4755L8.63481 24.4657C8.99597 23.7703 9.71424 23.3339 10.4979 23.3337ZM12.5973 27.0662H8.39817C8.14059 27.0662 7.93171 26.8573 7.93171 26.5998C7.93171 26.342 8.14059 26.1331 8.39817 26.1331H12.5973C12.8551 26.1331 13.064 26.342 13.064 26.5998C13.064 26.8573 12.8551 27.0662 12.5973 27.0662ZM13.9971 19.1345C13.7393 19.1345 13.5305 18.9257 13.5305 18.6681V15.402C13.5305 15.1445 13.7393 14.9356 13.9971 14.9356H20.529V19.1345H13.9971ZM18.896 23.3337C19.965 23.335 20.8629 24.1381 20.9831 25.2H16.8091C16.8377 24.9433 16.914 24.6942 17.0336 24.4653C17.0364 24.4586 17.0419 24.4539 17.0447 24.4475C17.4088 23.7628 18.1207 23.3346 18.896 23.3337ZM20.9957 27.0662H16.7965C16.5389 27.0662 16.3301 26.8573 16.3301 26.5998C16.3301 26.342 16.5389 26.1331 16.7965 26.1331H20.9957C21.2533 26.1331 21.4622 26.342 21.4622 26.5998C21.4622 26.8573 21.2533 27.0662 20.9957 27.0662ZM24.6479 18.7245C24.7918 19.1456 24.6182 19.61 24.2331 19.8334C23.8483 20.0568 23.3589 19.9771 23.0646 19.6431C22.7705 19.309 22.7532 18.8135 23.0234 18.4598C23.2936 18.1062 23.7761 17.9923 24.1759 18.1884C24.3986 18.2967 24.5687 18.4897 24.6479 18.7245ZM22.9053 17.377C22.5512 17.5579 22.265 17.8484 22.0899 18.2053C22.051 18.2886 22.0187 18.3748 21.9931 18.4633L21.4622 18.1171V15.892L22.9053 17.377ZM26.5945 5.13743C26.8522 5.13743 27.0611 5.34631 27.0611 5.6041C27.0611 5.86168 26.8522 6.07056 26.5945 6.07056C26.3369 6.07056 26.128 5.86168 26.128 5.6041C26.128 5.34631 26.3369 5.13743 26.5945 5.13743ZM6.99858 6.07056C6.74079 6.07056 6.53191 5.86168 6.53191 5.6041C6.53191 5.34631 6.74079 5.13743 6.99858 5.13743C7.25616 5.13743 7.46504 5.34631 7.46504 5.6041C7.46504 5.86168 7.25616 6.07056 6.99858 6.07056ZM10.2646 2.5779C10.2655 1.67275 10.9989 0.939322 11.9041 0.938467H21.689C22.5941 0.939322 23.3276 1.67275 23.3286 2.5779V8.40348C23.3263 10.4639 21.6565 12.1339 19.5959 12.136H13.9971C11.9365 12.1339 10.2668 10.4639 10.2646 8.40348V2.5779ZM5.15604 14.6729C5.61011 14.0537 6.29377 13.6428 7.05369 13.5326C7.14125 13.5225 7.22946 13.5174 7.31767 13.5172C7.85738 13.5251 8.3909 13.6308 8.89282 13.8292C9.02417 13.8816 9.12263 13.9937 9.15744 14.1306C9.19717 14.2718 9.16833 14.4236 9.07948 14.5402L9.03271 14.5986C8.90734 14.757 8.69397 14.8164 8.50474 14.7461C8.11859 14.5872 7.71044 14.489 7.29439 14.455C7.14403 14.4531 6.99474 14.4785 6.85335 14.53C6.46613 14.6808 6.12825 14.9358 5.87687 15.2668L5.07018 16.2363C5.03921 16.2698 5.00376 16.2989 4.96467 16.3226C4.85617 16.1938 4.73059 16.0802 4.59155 15.9853C4.48988 15.9189 4.38224 15.8625 4.27011 15.8164C4.28592 15.7532 4.31539 15.694 4.3564 15.6434L5.15604 14.6729ZM2.78403 17.0327C2.95852 16.7627 3.26031 16.6026 3.58175 16.6094C3.90297 16.6162 4.19771 16.7892 4.36067 17.0662V17.0697C4.54328 17.3755 4.5358 17.7587 4.34145 18.0573C4.05803 18.4878 3.47923 18.6072 3.04865 18.3238C2.61808 18.0404 2.49869 17.4614 2.78211 17.0308L2.78403 17.0327Z" fill="#202B38"/>
    </g>
    <defs>
    <clipPath id="clip0">
    <rect width="28" height="28" fill="white"/>
    </clipPath>
    </defs>
    </svg>
    