<svg width="54" height="54" viewBox="0 0 54 54" fill="none" xmlns="http://www.w3.org/2000/svg">
    <g clip-path="url(#clip0)">
    <path d="M17.4997 17.1019C15.7604 17.1019 14.3502 18.5121 14.3502 20.2518C14.3502 21.9915 15.7604 23.4017 17.4997 23.4017C19.2394 23.4017 20.6496 21.9915 20.6496 20.2518C20.6496 18.5121 19.2394 17.1019 17.4997 17.1019ZM17.4997 21.6018C16.7544 21.6018 16.1501 20.9974 16.1501 20.2518C16.1501 19.5061 16.7544 18.9018 17.4997 18.9018C18.2453 18.9018 18.8497 19.5061 18.8497 20.2518C18.8497 20.9974 18.2453 21.6018 17.4997 21.6018Z" fill="#202B38"/>
    <path d="M36.399 23.4017C38.1383 23.4017 39.5489 21.9915 39.5489 20.2518C39.5489 18.5121 38.1383 17.1019 36.399 17.1019C34.6592 17.1019 33.2491 18.5121 33.2491 20.2518C33.2491 21.9915 34.6592 23.4017 36.399 23.4017ZM36.399 18.9018C37.1442 18.9018 37.7486 19.5061 37.7486 20.2518C37.7486 20.9974 37.1442 21.6018 36.399 21.6018C35.6533 21.6018 35.049 20.9974 35.049 20.2518C35.049 19.5061 35.6533 18.9018 36.399 18.9018Z" fill="#202B38"/>
    <path d="M26.9493 12.602C26.8974 12.6078 26.8463 12.6181 26.7965 12.6329C26.7425 12.6329 26.6873 12.6263 26.6333 12.6329L13.1341 14.221C11.775 14.3813 10.7504 15.5335 10.75 16.9021V19.8019H7.88479C7.44646 18.5619 6.17884 17.8183 4.8828 18.0408C3.58676 18.2632 2.63965 19.3867 2.63965 20.7016C2.63965 22.0166 3.58676 23.1405 4.8828 23.3629C6.17884 23.585 7.44646 22.8414 7.88479 21.6018H10.75V24.1926C10.75 25.684 11.9591 26.8927 13.45 26.8927C13.5032 26.8927 13.5555 26.8927 13.6086 26.8873L20.6495 26.4733V27.9016C20.6495 29.3925 21.8582 30.6012 23.3496 30.6012H24.2493V32.3046C22.9796 32.3978 21.7153 32.5609 20.4633 32.7936C20.1787 32.8484 19.9377 33.0375 19.8161 33.3012H15.3282C14.8013 33.3012 14.3222 33.6081 14.1018 34.0868C13.8818 34.5659 13.96 35.1291 14.3032 35.5295L16.5917 38.1986L15.1898 39.3307C14.9343 39.5309 14.8066 39.8531 14.8552 40.1736C14.9039 40.4945 15.1214 40.7644 15.4242 40.8797C15.7274 40.9955 16.0693 40.939 16.319 40.7318L17.7205 39.6005L18.8497 41.0029L17.4477 42.1325C17.1507 42.3718 17.0374 42.7727 17.1643 43.1323C17.2916 43.492 17.6315 43.7321 18.013 43.7326C18.2181 43.733 18.4171 43.6625 18.5761 43.5328L19.9793 42.4031C19.9916 42.3924 20.0015 42.3788 20.0143 42.3681C20.5235 42.4744 21.0347 42.5733 21.5443 42.6553V45.0006H17.0498C13.0756 45.0051 9.85481 48.2259 9.85028 52.2001C9.85028 53.1942 10.6561 54 11.6502 54H22.5549C23.462 53.9991 24.227 53.3235 24.3395 52.4234L25.0143 47.0237C25.0769 46.5327 24.9336 46.0383 24.618 45.6573C24.3024 45.2762 23.8435 45.043 23.3496 45.0129V42.8938C25.7427 43.148 28.156 43.148 30.5491 42.8938V45.0129C30.0551 45.0426 29.5954 45.2754 29.2794 45.6564C28.9634 46.0375 28.8196 46.5327 28.8822 47.0237L29.5575 52.4234C29.6699 53.3243 30.4358 54.0004 31.3437 54H42.2485C43.2425 54 44.0483 53.1942 44.0483 52.2001C44.0438 48.2259 40.8231 45.0051 36.8488 45.0006H32.3489V42.6553C33.0176 42.5482 33.6837 42.4258 34.3441 42.28C34.7911 42.1803 35.0918 41.7613 35.0436 41.3061C34.9138 40.0743 34.7845 39.0213 34.6555 37.97C34.5591 37.1815 34.4631 36.3843 34.3659 35.5213L38.3644 36.854C38.4559 36.8853 38.5519 36.9009 38.6487 36.9009C38.853 36.9009 39.0516 36.8313 39.211 36.7036L43.4654 33.3012H44.0483C45.0424 33.3012 45.8482 32.4954 45.8482 31.5013V29.7014C45.8482 29.2042 45.4453 28.8013 44.9485 28.8013C44.4512 28.8013 44.0483 29.2042 44.0483 29.7014V31.5013H42.2485V29.7014C42.2485 29.2042 41.8456 28.8013 41.3487 28.8013C40.8515 28.8013 40.4486 29.2042 40.4486 29.7014V31.5013C40.4506 32.0365 40.6925 32.5428 41.1073 32.881L38.4687 34.9923L34.1488 33.5521C34.0977 33.1702 33.8077 32.8637 33.4291 32.7916C32.1788 32.5601 30.9169 32.3978 29.6493 32.3046V30.6012H30.5491C32.0404 30.6012 33.2491 29.3925 33.2491 27.9016V26.4733L40.2892 26.8873C41.0315 26.931 41.759 26.6669 42.3004 26.1569C42.8413 25.6469 43.1482 24.9362 43.1486 24.1926V21.6018H46.0138C46.4521 22.8414 47.7198 23.585 49.0158 23.3629C50.3119 23.1405 51.2594 22.0166 51.2594 20.7016C51.2594 19.3867 50.3119 18.2632 49.0158 18.0408C47.7198 17.8183 46.4521 18.5619 46.0138 19.8019H43.1486V16.9021C43.1478 15.534 42.1236 14.3821 40.7646 14.2223L30.7752 13.0469C30.8407 12.9872 30.9075 12.9279 30.9647 12.8669C31.8595 11.9565 32.3572 10.7288 32.3489 9.45253C32.3493 8.78927 32.2155 8.13301 31.9559 7.52288C32.2183 6.84685 32.3518 6.12756 32.3489 5.4025C32.3971 3.95609 31.8439 2.55458 30.8205 1.53126C29.7972 0.508354 28.3957 -0.045327 26.9493 0.00287303C26.4525 0.00287303 26.0496 0.405775 26.0496 0.903017C26.0496 1.39985 26.4525 1.80275 26.9493 1.80275C27.9199 1.74796 28.8678 2.10966 29.555 2.79682C30.2426 3.48439 30.6038 4.43191 30.5491 5.4025C30.5491 5.49272 30.5491 5.57347 30.5412 5.65915C29.5126 4.87148 28.2441 4.46322 26.9493 4.50277C23.219 4.50277 21.5497 6.08471 21.5497 7.65265C21.5497 9.22018 23.219 10.8021 26.9493 10.8021C28.2635 10.8396 29.5451 10.391 30.5491 9.54234C30.5355 10.3156 30.2261 11.0542 29.6852 11.6067C28.9453 12.2947 27.9582 12.6539 26.9493 12.602ZM5.35038 21.6018C4.85355 21.6018 4.45065 21.1989 4.45065 20.7016C4.45065 20.2048 4.85355 19.8019 5.35038 19.8019C5.84762 19.8019 6.25052 20.2048 6.25052 20.7016C6.25052 21.1989 5.84762 21.6018 5.35038 21.6018ZM17.0498 46.8005H19.6299L18.9551 52.2001H11.6502C11.653 49.2191 14.0688 46.8033 17.0498 46.8005ZM22.5549 53.0998V52.2001V53.0998ZM22.5549 52.2001H20.7694L21.4442 46.8005H23.2297L22.5549 52.2001ZM30.6698 46.8005H32.4552L33.13 52.2001H31.3437L30.6698 46.8005ZM42.2485 52.2001H34.9435L34.2687 46.8005H36.8488C39.8298 46.8033 42.2456 49.2191 42.2485 52.2001ZM48.5482 19.8019C49.0451 19.8019 49.448 20.2048 49.448 20.7016C49.448 21.1989 49.0451 21.6018 48.5482 21.6018C48.051 21.6018 47.6481 21.1989 47.6481 20.7016C47.6481 20.2048 48.051 19.8019 48.5482 19.8019ZM29.6493 7.89819C28.9535 8.64302 27.9673 9.04633 26.9493 9.00225C24.405 9.00225 23.3496 8.12312 23.3496 7.65265C23.3496 7.18178 24.405 6.30264 26.9493 6.30264C28.0822 6.22519 29.1846 6.69113 29.9192 7.55708C29.8364 7.67614 29.7461 7.79025 29.6493 7.89819ZM19.5797 35.1011C19.4672 36.1322 19.3547 37.0558 19.2431 37.97L19.1838 38.4578L16.3066 35.1011H19.5797ZM32.3975 34.437C32.4116 34.4988 32.4317 34.5589 32.4581 34.617C32.5965 35.9435 32.7279 37.0666 32.8692 38.185C32.9681 38.9888 33.0662 39.795 33.1654 40.6815C29.0598 41.4799 24.8388 41.4799 20.7332 40.6815C20.8324 39.795 20.9313 38.9888 21.0294 38.185C21.167 37.062 21.2996 35.9353 21.4426 34.6005C21.4681 34.5466 21.4879 34.4901 21.5019 34.4324C22.4127 34.2792 23.3314 34.1766 24.2493 34.1012V34.2009C24.2493 34.6982 24.6526 35.1011 25.1494 35.1011H28.7492C29.2464 35.1011 29.6493 34.6982 29.6493 34.2009V34.1058C30.568 34.1811 31.4867 34.2837 32.3975 34.437ZM27.8494 33.3012H26.0496V30.6012H27.8494V33.3012ZM31.4492 27.9016C31.4492 28.3984 31.0463 28.8013 30.5491 28.8013H23.3496C22.8523 28.8013 22.4494 28.3984 22.4494 27.9016V26.3715L26.8999 26.1095C26.9341 26.1079 26.9683 26.1079 27.0024 26.1095L31.4492 26.3715V27.9016ZM41.3487 16.9021V24.1918C41.3491 24.4398 41.247 24.6771 41.0669 24.8473C40.8865 25.0178 40.6439 25.106 40.3963 25.0915L27.1112 24.3096C27.0564 24.3096 27.0024 24.3043 26.9485 24.3043C26.8945 24.3043 26.843 24.3043 26.7911 24.3096L13.5023 25.0907C13.2552 25.1051 13.0129 25.017 12.8325 24.8468C12.6512 24.6779 12.5486 24.4406 12.5503 24.1926V16.9029C12.5503 16.4465 12.8922 16.0625 13.3458 16.0094L26.8451 14.4221C26.9139 14.4134 26.9839 14.4134 27.0527 14.4221L40.552 16.0094C41.0056 16.0621 41.3479 16.4456 41.3487 16.9021Z" fill="#202B38"/>
    <path d="M24.4656 37.8271C23.9828 37.7076 23.495 38.0021 23.3755 38.485C23.2565 38.9674 23.551 39.4555 24.0334 39.5746C25.9495 40.0389 27.9492 40.0389 29.8652 39.5746C30.3476 39.4555 30.6422 38.9674 30.5231 38.485C30.4037 38.0021 29.9159 37.7076 29.4331 37.8271C27.8009 38.223 26.0978 38.223 24.4656 37.8271Z" fill="#202B38"/>
    </g>
    <defs>
    <clipPath id="clip0">
    <rect width="54" height="54" fill="white"/>
    </clipPath>
    </defs>
    </svg>
    